# xmcd
#
# Track frame offsets:
#	150
#	20339
#	40818
#	60725
#	88202
#	110413
#	127982
#	147032
#	163827
#	193976
#	213948
#	234252
#
# Disc length: 3594 seconds
#
# Revision: 7
# Processed by: cddbd v1.5.2PL0 Copyright (c) Steve Scherf et al.
# Submitted via: EasyCDDAExtractor 10.0.1.1
#
DISCID=a30e080c
DTITLE=Various Artist - Songs Of Eric Clapton
DYEAR=2003
DGENRE=Blues
TTITLE0=Larry McCray - Miss You
TTITLE1=Koko Taylor - Blues Power
TTITLE2=Otis Clay - Wonderful Tonight
TTITLE3=Carl Weathersby - Lay Down Sally
TTITLE4=Buddy Guy - Strange Brew
TTITLE5=Bo Diddley - Before You Accuse Me
TTITLE6=Joe Louis Waller and James Cotton - Roll It Over
TTITLE7=Honeyboy Edwards and James Cotton - Crossroads
TTITLE8=Otis Rush - Old Love
TTITLE9=Pinetop Perkins, John Hammond and Bob Margolin  - Too Bad
TTITLE10=Ann Peebles - Tears in Heaven
TTITLE11=Eric Gales and Derek Trucks - Layla
EXTD=
EXTT0=
EXTT1=
EXTT2=
EXTT3=
EXTT4=
EXTT5=
EXTT6=
EXTT7=
EXTT8=
EXTT9=
EXTT10=
EXTT11=
PLAYORDER=
